<svg width="238" height="39" xmlns="http://www.w3.org/2000/svg" xmlns:xlink="http://www.w3.org/1999/xlink"><defs><path id="a" d="M0 0h241v47H0z"/></defs><g transform="translate(-1 -1)" fill="none" fill-rule="evenodd"><mask id="b" fill="#fff"><use xlink:href="#a"/></mask><g mask="url(#b)" stroke="#FFF" stroke-linecap="square"><path d="M1.5 22.026v1.948M4.5 22.026v1.948M7.5 22.026v1.948M10.5 22.026v1.948M13.5 22.026v1.948M16.5 22.053v3.896M19.5 20.079v5.844M22.5 20.079v5.844M25.5 20.079v5.844M28.5 20.079v5.844M31.5 20.079v5.844M34.5 20.079v5.844M37.5 20.079v5.844M40.5 20.079v5.844M43.5 20.079v5.844M46.5 20.079v5.844M49.5 20.079v5.844M52.5 20.079v5.844M55.5 20.079v5.844M58.5 20.079v5.844M61.5 20.079v5.844M64.5 20.079v5.844M67.5 20.079v5.844M70.5 20.079v5.844M73.5 20.079v5.844M76.5 13.25v18.507M79.5 13.25v18.507M82.5 13.25v18.507M85.5 13.25v18.507M88.5 13.25v18.507M91.5 13.25v18.507M94.5 13.25v18.507M97.5 13.25v18.507M100.5 13.25v18.507M103.5 13.25v18.507M106.5 13.25v18.507M109.5 13.25v18.507M112.5 13.25v18.507M115.5 13.25v18.507M118.5 13.25v18.507M122.5 1.5v37.014M125.5 1.5v37.014M127.5 5.447v33.118M130.5 5.447v33.118M133.5 5.329v24.35M136.5 5.329v24.35M139.5 16.184v13.637M142.5 16.184v13.637M145.5 16.184v13.637M148.5 16.184v13.637M151.5 16.184v13.637M154.5 16.184v13.637M157.5 16.184v13.637M160.5 14.329v24.35M163.5 5.447v33.118M167.5 1.5v37.014M170.5 1.5v37.014M173.5 1.5v37.014M176.5 1.5v37.014M178.5 16.184v13.637M181.5 16.184v13.637M184.5 16.184v13.637M187.5 16.184v13.637M190.5 16.184v13.637M193.5 16.184v13.637M196.5 16.184v13.637M199.5 16.184v13.637M202.5 16.184v13.637M205.5 16.184v13.637M208.5 16.184v13.637M211.5 16.184v13.637M214.5 20.079v5.844M217.5 20.079v5.844M220.5 20.079v5.844M223.5 20.079v5.844M226.5 20.079v5.844M229.5 20.079v5.844M232.5 20.079v5.844M235.5 20.079v5.844M238.5 20.079v5.844"/></g></g></svg>